HIERARCHY
ROOT Hips
{
  OFFSET -21.7848 93.0946 1805.31
  CHANNELS 6 Xposition Yposition Zposition Zrotation Xrotation Yrotation
  JOINT Spine
  {
    OFFSET 0 8 0
    CHANNELS 6 Xposition Yposition Zposition Zrotation Xrotation Yrotation
    JOINT Spine1
    {
      OFFSET 0 8 0
      CHANNELS 6 Xposition Yposition Zposition Zrotation Xrotation Yrotation
      JOINT Spine2
      {
        OFFSET 0 8 0
        CHANNELS 6 Xposition Yposition Zposition Zrotation Xrotation Yrotation
        JOINT Spine3
        {
          OFFSET 0 8 0
          CHANNELS 6 Xposition Yposition Zposition Zrotation Xrotation Yrotation
          JOINT Neck
          {
            OFFSET 0 17 0
            CHANNELS 6 Xposition Yposition Zposition Zrotation Xrotation Yrotation
            JOINT Head
            {
              OFFSET 0 10.8 0
              CHANNELS 6 Xposition Yposition Zposition Zrotation Xrotation Yrotation
              End Site
              {
                OFFSET 0 20.25 0
              }
            }
          }
          JOINT LeftShoulder
          {
            OFFSET 5 17 0
            CHANNELS 6 Xposition Yposition Zposition Zrotation Xrotation Yrotation
            JOINT LeftShoulder2
            {
              OFFSET 6.45 0 0
              CHANNELS 6 Xposition Yposition Zposition Zrotation Xrotation Yrotation
              JOINT LeftArm
              {
                OFFSET 6.45 0 0
                CHANNELS 6 Xposition Yposition Zposition Zrotation Xrotation Yrotation
                JOINT LeftForeArm
                {
                  OFFSET 0 -32.4 -2
                  CHANNELS 6 Xposition Yposition Zposition Zrotation Xrotation Yrotation
                  JOINT LeftHand
                  {
                    OFFSET 0 -25.65 2
                    CHANNELS 6 Xposition Yposition Zposition Zrotation Xrotation Yrotation
                    JOINT LeftHandThumb1
                    {
                      OFFSET -0.5 -1.5 2.65
                      CHANNELS 6 Xposition Yposition Zposition Zrotation Xrotation Yrotation
                      JOINT LeftHandThumb2
                      {
                        OFFSET 0 -3.8 3.7
                        CHANNELS 6 Xposition Yposition Zposition Zrotation Xrotation Yrotation
                        JOINT LeftHandThumb3
                        {
                          OFFSET 0 -3 2.7
                          CHANNELS 6 Xposition Yposition Zposition Zrotation Xrotation Yrotation
                          End Site
                          {
                            OFFSET 0 -2.3 1.8
                          }
                        }
                      }
                    }
                    JOINT LeftHandIndex
                    {
                      OFFSET 0 -1.9 1.6
                      CHANNELS 6 Xposition Yposition Zposition Zrotation Xrotation Yrotation
                      JOINT LeftHandIndex1
                      {
                        OFFSET 0 -8.3 1.9
                        CHANNELS 6 Xposition Yposition Zposition Zrotation Xrotation Yrotation
                        JOINT LeftHandIndex2
                        {
                          OFFSET 0 -4.5 0
                          CHANNELS 6 Xposition Yposition Zposition Zrotation Xrotation Yrotation
                          JOINT LeftHandIndex3
                          {
                            OFFSET 0 -3.4 0
                            CHANNELS 6 Xposition Yposition Zposition Zrotation Xrotation Yrotation
                            End Site
                            {
                              OFFSET 0 -2.6 0
                            }
                          }
                        }
                      }
                    }
                    JOINT LeftHandMiddle
                    {
                      OFFSET -0.25 -2.2 0.4
                      CHANNELS 6 Xposition Yposition Zposition Zrotation Xrotation Yrotation
                      JOINT LeftHandMiddle1
                      {
                        OFFSET 0 -8.3 1
                        CHANNELS 6 Xposition Yposition Zposition Zrotation Xrotation Yrotation
                        JOINT LeftHandMiddle2
                        {
                          OFFSET 0 -4.65 0
                          CHANNELS 6 Xposition Yposition Zposition Zrotation Xrotation Yrotation
                          JOINT LeftHandMiddle3
                          {
                            OFFSET 0 -3.3 0
                            CHANNELS 6 Xposition Yposition Zposition Zrotation Xrotation Yrotation
                            End Site
                            {
                              OFFSET 0 -2.7 0
                            }
                          }
                        }
                      }
                    }
                    JOINT LeftHandRing
                    {
                      OFFSET -0.5 -2.15 -0.8
                      CHANNELS 6 Xposition Yposition Zposition Zrotation Xrotation Yrotation
                      JOINT LeftHandRing1
                      {
                        OFFSET 0 -7.75 -0.2
                        CHANNELS 6 Xposition Yposition Zposition Zrotation Xrotation Yrotation
                        JOINT LeftHandRing2
                        {
                          OFFSET 0 -3.8 0
                          CHANNELS 6 Xposition Yposition Zposition Zrotation Xrotation Yrotation
                          JOINT LeftHandRing3
                          {
                            OFFSET 0 -3.4 0
                            CHANNELS 6 Xposition Yposition Zposition Zrotation Xrotation Yrotation
                            End Site
                            {
                              OFFSET 0 -2.6 0
                            }
                          }
                        }
                      }
                    }
                    JOINT LeftHandPinky
                    {
                      OFFSET -0.75 -1.75 -1.85
                      CHANNELS 6 Xposition Yposition Zposition Zrotation Xrotation Yrotation
                      JOINT LeftHandPinky1
                      {
                        OFFSET 0 -7.15 -1
                        CHANNELS 6 Xposition Yposition Zposition Zrotation Xrotation Yrotation
                        JOINT LeftHandPinky2
                        {
                          OFFSET 0 -3 0
                          CHANNELS 6 Xposition Yposition Zposition Zrotation Xrotation Yrotation
                          JOINT LeftHandPinky3
                          {
                            OFFSET 0 -2.35 0
                            CHANNELS 6 Xposition Yposition Zposition Zrotation Xrotation Yrotation
                            End Site
                            {
                              OFFSET 0 -2.1 0
                            }
                          }
                        }
                      }
                    }
                  }
                }
              }
            }
          }
          JOINT RightShoulder
          {
            OFFSET -5 17 0
            CHANNELS 6 Xposition Yposition Zposition Zrotation Xrotation Yrotation
            JOINT RightShoulder2
            {
              OFFSET -6.45 0 0
              CHANNELS 6 Xposition Yposition Zposition Zrotation Xrotation Yrotation
              JOINT RightArm
              {
                OFFSET -6.45 0 0
                CHANNELS 6 Xposition Yposition Zposition Zrotation Xrotation Yrotation
                JOINT RightForeArm
                {
                  OFFSET 0 -32.4 -2
                  CHANNELS 6 Xposition Yposition Zposition Zrotation Xrotation Yrotation
                  JOINT RightHand
                  {
                    OFFSET 0 -25.65 2
                    CHANNELS 6 Xposition Yposition Zposition Zrotation Xrotation Yrotation
                    JOINT RightHandThumb1
                    {
                      OFFSET 0.5 -1.5 2.65
                      CHANNELS 6 Xposition Yposition Zposition Zrotation Xrotation Yrotation
                      JOINT RightHandThumb2
                      {
                        OFFSET 0 -3.8 3.7
                        CHANNELS 6 Xposition Yposition Zposition Zrotation Xrotation Yrotation
                        JOINT RightHandThumb3
                        {
                          OFFSET 0 -3 2.7
                          CHANNELS 6 Xposition Yposition Zposition Zrotation Xrotation Yrotation
                          End Site
                          {
                            OFFSET 0 -2.3 1.8
                          }
                        }
                      }
                    }
                    JOINT RightHandIndex
                    {
                      OFFSET 0 -1.9 1.6
                      CHANNELS 6 Xposition Yposition Zposition Zrotation Xrotation Yrotation
                      JOINT RightHandIndex1
                      {
                        OFFSET 0 -8.3 1.9
                        CHANNELS 6 Xposition Yposition Zposition Zrotation Xrotation Yrotation
                        JOINT RightHandIndex2
                        {
                          OFFSET 0 -4.5 0
                          CHANNELS 6 Xposition Yposition Zposition Zrotation Xrotation Yrotation
                          JOINT RightHandIndex3
                          {
                            OFFSET 0 -3.4 0
                            CHANNELS 6 Xposition Yposition Zposition Zrotation Xrotation Yrotation
                            End Site
                            {
                              OFFSET 0 -2.6 0
                            }
                          }
                        }
                      }
                    }
                    JOINT RightHandMiddle
                    {
                      OFFSET 0.25 -2.2 0.4
                      CHANNELS 6 Xposition Yposition Zposition Zrotation Xrotation Yrotation
                      JOINT RightHandMiddle1
                      {
                        OFFSET 0 -8.3 1
                        CHANNELS 6 Xposition Yposition Zposition Zrotation Xrotation Yrotation
                        JOINT RightHandMiddle2
                        {
                          OFFSET 0 -4.65 0
                          CHANNELS 6 Xposition Yposition Zposition Zrotation Xrotation Yrotation
                          JOINT RightHandMiddle3
                          {
                            OFFSET 0 -3.3 0
                            CHANNELS 6 Xposition Yposition Zposition Zrotation Xrotation Yrotation
                            End Site
                            {
                              OFFSET 0 -2.7 0
                            }
                          }
                        }
                      }
                    }
                    JOINT RightHandRing
                    {
                      OFFSET 0.5 -2.15 -0.8
                      CHANNELS 6 Xposition Yposition Zposition Zrotation Xrotation Yrotation
                      JOINT RightHandRing1
                      {
                        OFFSET 0 -7.75 -0.2
                        CHANNELS 6 Xposition Yposition Zposition Zrotation Xrotation Yrotation
                        JOINT RightHandRing2
                        {
                          OFFSET 0 -3.8 0
                          CHANNELS 6 Xposition Yposition Zposition Zrotation Xrotation Yrotation
                          JOINT RightHandRing3
                          {
                            OFFSET 0 -3.4 0
                            CHANNELS 6 Xposition Yposition Zposition Zrotation Xrotation Yrotation
                            End Site
                            {
                              OFFSET 0 -2.6 0
                            }
                          }
                        }
                      }
                    }
                    JOINT RightHandPinky
                    {
                      OFFSET 0.75 -1.75 -1.85
                      CHANNELS 6 Xposition Yposition Zposition Zrotation Xrotation Yrotation
                      JOINT RightHandPinky1
                      {
                        OFFSET 0 -7.15 -1
                        CHANNELS 6 Xposition Yposition Zposition Zrotation Xrotation Yrotation
                        JOINT RightHandPinky2
                        {
                          OFFSET 0 -3 0
                          CHANNELS 6 Xposition Yposition Zposition Zrotation Xrotation Yrotation
                          JOINT RightHandPinky3
                          {
                            OFFSET 0 -2.35 0
                            CHANNELS 6 Xposition Yposition Zposition Zrotation Xrotation Yrotation
                            End Site
                            {
                              OFFSET 0 -2.1 0
                            }
                          }
                        }
                      }
                    }
                  }
                }
              }
            }
          }
        }
      }
    }
  }
  JOINT LeftUpLeg
  {
    OFFSET 8 0 0
    CHANNELS 6 Xposition Yposition Zposition Zrotation Xrotation Yrotation
    JOINT LeftLeg
    {
      OFFSET 0 -45 -1
      CHANNELS 6 Xposition Yposition Zposition Zrotation Xrotation Yrotation
      JOINT LeftFoot
      {
        OFFSET 0 -41 -2
        CHANNELS 6 Xposition Yposition Zposition Zrotation Xrotation Yrotation
        JOINT LeftToeBase
        {
          OFFSET 0 -7.5 12.5
          CHANNELS 6 Xposition Yposition Zposition Zrotation Xrotation Yrotation
          JOINT LeftFootToe
          {
            OFFSET 0 0 4
            CHANNELS 6 Xposition Yposition Zposition Zrotation Xrotation Yrotation
            End Site
            {
              OFFSET 0 0 0
            }
          }
        }
      }
    }
  }
  JOINT RightUpLeg
  {
    OFFSET -8 0 0
    CHANNELS 6 Xposition Yposition Zposition Zrotation Xrotation Yrotation
    JOINT RightLeg
    {
      OFFSET 0 -45 -1
      CHANNELS 6 Xposition Yposition Zposition Zrotation Xrotation Yrotation
      JOINT RightFoot
      {
        OFFSET 0 -41 -2
        CHANNELS 6 Xposition Yposition Zposition Zrotation Xrotation Yrotation
        JOINT RightToeBase
        {
          OFFSET 0 -7.5 12.5
          CHANNELS 6 Xposition Yposition Zposition Zrotation Xrotation Yrotation
          JOINT RightFootToe
          {
            OFFSET 0 0 4
            CHANNELS 6 Xposition Yposition Zposition Zrotation Xrotation Yrotation
            End Site
            {
              OFFSET 0 0 0
            }
          }
        }
      }
    }
  }
}
MOTION
Frames:	3
Frame Time:	0.0111111
-259.751 72.5251 1590.79 -1.10508 5.27445 -172.005 0 8 0 4.58983 10.2574 -7.524 -5.68434e-14 8 0 1.6054 7.11336 -3.78256 -5.68434e-14 8 -2.27374e-13 0.743338 3.57443 -1.86507 0 8 0 0.741309 3.56539 -1.86027 -2.84217e-14 17 0 0.904419 4.51336 -1.99013 -5.68434e-14 10.8 0 2.37608 10.4904 -4.79628 5 17 0 -3.2974 0.424476 1.23285 6.45 -5.68434e-14 0 1.00455 -0.535737 1.0744 6.45 0 0 61.5905 17.2482 10.7509 0 -32.4 -2 -103.897 -65.2823 -113.527 -1.13687e-13 -25.65 2 20.9735 -22.8425 -17.2747 -0.5 -1.5 2.65 -56.2622 -62.0323 88.3188 1.13687e-13 -3.8 3.7 -0.0636169 22.5517 0.0101738 0 -3 2.7 -0.0528733 27.6446 0.0103036 -2.84217e-14 -1.9 1.6 0 1.59028e-15 -0 5.68434e-14 -8.3 1.9 -3.40505 4.84979 0.333975 0 -4.5 -5.68434e-14 -59.5967 -0.0157314 0.000764436 0 -3.4 0 -41.7554 -0.00876815 -0.00945925 -0.25 -2.2 0.4 0 1.59028e-15 -0 0 -8.3 1 -9.29024 7.60086 1.6429 0 -4.65 2.84217e-14 -55.7115 -0.0585814 0.0152228 0 -3.3 0 -90.0002 -3.18055e-14 3.02153e-14 -0.5 -2.15 -0.8 0 1.59028e-15 -0 -2.84217e-14 -7.75 -0.2 -39.5262 9.83962 8.50571 0 -3.8 -2.84217e-14 -1.77347 -0.000501339 0.000396432 2.27374e-13 -3.4 0 -90.0002 -1.92821e-14 3.18055e-15 -0.75 -1.75 -1.85 0 1.59028e-15 -0 2.84217e-14 -7.15 -1 -6.09847 20.222 1.97211 5.68434e-14 -3 -5.68434e-14 -44.8109 -0.00900556 0.0185617 -2.27374e-13 -2.35 0 -90.0002 -1.43125e-14 4.77083e-14 -5 17 0 8.44085 -1.04958 -0.930873 -6.45 -5.68434e-14 -2.27374e-13 -1.86479 0.181963 -2.39324 -6.45 5.68434e-14 2.27374e-13 -42.0409 15.7518 11.6135 0 -32.4 -2 47.4426 -60.432 75.8826 0 -25.65 2 -31.5351 0.705522 22.8719 0.5 -1.5 2.65 23.7111 -17.2961 6.97247 -2.27374e-13 -3.8 3.7 0.0649961 10.0875 -0.0252233 2.27374e-13 -3 2.7 0.00528046 0.0544236 -0.00946268 0 -1.9 1.6 -0 -4.77083e-15 -0 2.27374e-13 -8.3 1.9 7.65467 17.7184 -1.37344 -2.27374e-13 -4.5 0 1.09107e-06 0.00438815 -0.014246 2.27374e-13 -3.4 -1.13687e-13 9.22715e-07 0.00407798 -0.0129642 0.25 -2.2 0.4 -0 -4.77083e-15 -0 0 -8.3 1 7.52003 15.2322 -1.21771 2.27374e-13 -4.65 1.13687e-13 18.3387 -0.112898 0.111424 2.27374e-13 -3.3 -1.13687e-13 14.4836 -0.0494359 0.0895573 0.5 -2.15 -0.8 -0 -4.77083e-15 -0 1.13687e-13 -7.75 -0.2 10.046 11.777 -1.34921 0 -3.8 -5.68434e-14 34.0837 -0.0482023 0.119555 0 -3.4 -1.7053e-13 24.565 0.00506047 0.0784397 0.75 -1.75 -1.85 -0 -4.77083e-15 -0 -1.13687e-13 -7.15 -1 9.74314 8.43985 -1.0044 0 -3 0 36.2023 -0.0342766 0.214491 0 -2.35 -5.68434e-14 25.8542 0.0411339 0.126471 8 0 0 -27.9489 -50.472 -31.4351 -2.84217e-14 -45 -1 1.82184 62.6437 -3.22098 2.84217e-14 -41 -2 -0.325502 -1.20056 -1.33135 -2.84217e-14 -7.5 12.5 4.96962e-17 9.93923e-17 -0 2.84217e-14 0 4 -0.722984 -0.131009 41.5129 -8 0 0 -27.6869 -51.4543 -31.6026 2.84217e-14 -45 -1 -8.54122 74.6195 11.7134 -2.84217e-14 -41 -2 -1.58947 2.46638 10.3503 0 -7.5 12.5 -6.76375e-16 -16.0315 3.30925e-15 5.68434e-14 0 4 -8.87524 13.9121 45.6113 
-259.797 72.4763 1590.81 -1.13344 5.50053 -171.998 1.13687e-13 8 0 4.58304 10.2154 -7.57706 0 8 0 1.62696 7.07895 -3.79894 -1.13687e-13 8 0 0.754146 3.55741 -1.87306 5.68434e-14 8 2.27374e-13 0.752093 3.54846 -1.86827 0 17 0 0.763132 4.48636 -1.86826 0 10.8 0 2.0269 10.4381 -4.49082 5 17 0 -3.1612 0.427719 1.27778 6.45 0 2.27374e-13 0.990249 -0.523804 1.07816 6.45 5.68434e-14 2.27374e-13 61.6728 17.0848 10.6699 2.84217e-14 -32.4 -2 -103.463 -65.2647 -112.408 0 -25.65 2 19.8231 -22.0088 -17.8567 -0.5 -1.5 2.65 -55.7634 -61.7731 88.8039 0 -3.8 3.7 -0.060924 23.0485 0.0110767 0 -3 2.7 -0.0633203 28.4164 0.0111039 2.84217e-14 -1.9 1.6 1.59028e-15 -1.59028e-15 -7.95139e-16 -2.84217e-14 -8.3 1.9 -4.39293 5.28589 0.411925 0 -4.5 -2.84217e-14 -60.2381 -0.0104852 0.0024052 0 -3.4 -2.84217e-14 -42.2917 -0.00853663 -0.00384012 -0.25 -2.2 0.4 1.59028e-15 -1.59028e-15 -7.95139e-16 0 -8.3 1 -9.74301 7.76798 1.68271 -5.68434e-14 -4.65 -5.68434e-14 -56.9845 -0.0424193 0.0205735 0 -3.3 0 -90.0002 5.64548e-14 -5.00937e-14 -0.5 -2.15 -0.8 1.59028e-15 -1.59028e-15 -7.95139e-16 -2.84217e-14 -7.75 -0.2 -40.0229 9.5534 8.5247 -2.27374e-13 -3.8 0 -1.77347 -0.000526724 0.000426665 0 -3.4 5.68434e-14 -90.0002 1.43125e-14 -4.21423e-14 -0.75 -1.75 -1.85 1.59028e-15 -1.59028e-15 -7.95139e-16 0 -7.15 -1 -5.8538 19.777 1.86677 0 -3 0 -46.9696 0.00179899 0.0371122 0 -2.35 -1.13687e-13 -90.0002 3.10104e-14 -1.27222e-14 -5 17 -2.27374e-13 8.45661 -1.02187 -0.91702 -6.45 5.68434e-14 -2.27374e-13 -1.86429 0.171163 -2.41718 -6.45 -5.68434e-14 0 -42.0453 15.4831 12.0236 0 -32.4 -2 47.2248 -59.9246 75.7185 0 -25.65 2 -32.0722 1.0186 23.5525 0.5 -1.5 2.65 24.2196 -17.3744 7.4947 2.27374e-13 -3.8 3.7 0.067405 11.1226 -0.0334057 2.27374e-13 -3 2.7 0.00533213 0.0543901 -0.00938742 -1.13687e-13 -1.9 1.6 6.36111e-15 -3.18055e-15 1.59028e-15 1.13687e-13 -8.3 1.9 6.36602 17.81 -1.17517 0 -4.5 0 1.09684e-06 0.00440642 -0.014262 0 -3.4 0 9.27287e-07 0.00409418 -0.0129768 0.25 -2.2 0.4 6.36111e-15 -3.18055e-15 1.59028e-15 -1.13687e-13 -8.3 1 6.77247 15.5056 -1.13466 2.27374e-13 -4.65 0 14.6355 -0.0514519 0.0486688 0 -3.3 0 11.9881 -0.0236801 0.0400769 0.5 -2.15 -0.8 6.36111e-15 -3.18055e-15 1.59028e-15 0 -7.75 -0.2 9.33639 11.9231 -1.27561 2.27374e-13 -3.8 -1.13687e-13 31.1898 -0.0233552 0.0604688 0 -3.4 1.13687e-13 22.7992 0.00286213 0.0386612 0.75 -1.75 -1.85 6.36111e-15 -3.18055e-15 1.59028e-15 -1.13687e-13 -7.15 -1 9.39887 8.81436 -1.00521 0 -3 -5.68434e-14 33.1781 -0.0415038 0.120945 -2.27374e-13 -2.35 0 23.9994 0.0103105 0.0761866 8 0 0 -27.9614 -50.221 -31.4615 -2.84217e-14 -45 -1 1.75433 62.4447 -3.11606 5.68434e-14 -41 -2 -0.332506 -1.1226 -0.774251 0 -7.5 12.5 4.96962e-17 0 1.59028e-15 2.84217e-14 0 4 -0.745582 -0.163124 41.5136 -8 2.84217e-14 0 -27.6305 -51.2977 -31.4366 0 -45 -1 -8.50574 74.6861 11.6491 0 -41 -2 -1.56048 2.4412 10.4189 0 -7.5 12.5 3.94258e-16 -16.0084 -2.89526e-15 0 0 4 -8.85413 13.9079 45.5898 
-259.837 72.4292 1590.84 -1.15954 5.72889 -171.993 0 8 2.27374e-13 4.57528 10.1868 -7.63885 0 8 -2.27374e-13 1.64693 7.05014 -3.82171 2.84217e-14 8 -2.27374e-13 0.764026 3.54323 -1.88426 0 8 0 0.761953 3.53434 -1.87946 2.84217e-14 17 0 0.625446 4.46338 -1.74698 -2.84217e-14 10.8 0 1.68672 10.3939 -4.18755 5 17 2.27374e-13 -3.03164 0.427344 1.30923 6.45 0 2.27374e-13 0.975522 -0.511582 1.07958 6.45 5.68434e-14 2.27374e-13 61.7519 16.9217 10.6176 0 -32.4 -2 -102.956 -65.2883 -111.298 0 -25.65 2 18.6618 -21.0959 -18.4938 -0.5 -1.5 2.65 -55.2 -61.5244 89.3357 0 -3.8 3.7 -0.0611591 23.5274 0.0138248 1.13687e-13 -3 2.7 -0.0664989 29.3369 0.0119278 0 -1.9 1.6 1.59028e-15 0 -3.97569e-16 0 -8.3 1.9 -5.52039 5.72879 0.503033 0 -4.5 2.84217e-14 -60.6917 -0.00978283 0.00405606 -2.27374e-13 -3.4 0 -42.6766 -0.00685448 0.000353179 -0.25 -2.2 0.4 1.59028e-15 0 -3.97569e-16 -2.84217e-14 -8.3 1 -10.291 7.92646 1.72516 -1.13687e-13 -4.65 0 -58.2036 -0.0348727 0.019606 0 -3.3 0 -90.0002 -2.54444e-14 1.25234e-14 -0.5 -2.15 -0.8 1.59028e-15 0 -3.97569e-16 2.84217e-14 -7.75 -0.2 -40.7612 9.18962 8.56141 0 -3.8 5.68434e-14 -1.77347 -0.000551858 0.000455581 0 -3.4 0 -90.0002 4.57205e-15 -3.40916e-14 -0.75 -1.75 -1.85 1.59028e-15 0 -3.97569e-16 0 -7.15 -1 -5.78974 19.2896 1.7927 0 -3 -5.68434e-14 -49.1176 0.0121186 0.0529455 0 -2.35 1.13687e-13 -90.0002 7.95139e-15 2.38542e-14 -5 17 2.27374e-13 8.48205 -1.01042 -0.899285 -6.45 5.68434e-14 2.27374e-13 -1.8634 0.17425 -2.42168 -6.45 0 0 -41.9542 15.3245 12.2274 -5.68434e-14 -32.4 -2 47.1966 -59.4198 75.5622 0 -25.65 2 -32.701 1.1748 24.2229 0.5 -1.5 2.65 24.7155 -17.3716 8.07434 0 -3.8 3.7 0.0933782 12.3465 -0.0495099 2.27374e-13 -3 2.7 0.00541089 0.0542746 -0.00929839 0 -1.9 1.6 -6.36111e-15 -3.18055e-15 -0 -1.13687e-13 -8.3 1.9 5.62599 18.0478 -1.07814 0 -4.5 -1.13687e-13 1.10262e-06 0.00442469 -0.0142779 2.27374e-13 -3.4 -1.13687e-13 9.3186e-07 0.00411037 -0.0129895 0.25 -2.2 0.4 -6.36111e-15 -3.18055e-15 -0 0 -8.3 1 6.31481 15.7748 -1.09601 2.27374e-13 -4.65 0 11.1543 0.0207346 0.00982025 0 -3.3 1.13687e-13 9.52516 0.018307 0.00580152 0.5 -2.15 -0.8 -6.36111e-15 -3.18055e-15 -0 0 -7.75 -0.2 9.29474 12.2019 -1.30495 0 -3.8 1.13687e-13 28.3483 0.00514754 -0.00862298 0 -3.4 1.13687e-13 21.0625 0.00187519 -0.00605227 0.75 -1.75 -1.85 -6.36111e-15 -3.18055e-15 -0 -1.13687e-13 -7.15 -1 9.53441 9.03444 -1.04061 2.27374e-13 -3 5.68434e-14 30.2559 -0.0305043 0.0214493 0 -2.35 0 22.2168 -0.00953078 0.0183993 8 0 0 -27.9373 -49.966 -31.4662 -8.52651e-14 -45 -1 1.68908 62.2111 -3.01614 0 -41 -2 -0.351053 -1.02959 -0.168361 0 -7.5 12.5 2.48481e-17 0 1.59028e-15 0 0 4 -0.759672 -0.210921 41.5142 -8 0 0 -27.5647 -51.1369 -31.2733 8.52651e-14 -45 -1 -8.47474 74.7464 11.5926 2.84217e-14 -41 -2 -1.53572 2.42296 10.4659 -5.68434e-14 -7.5 12.5 5.90452e-17 -16.0203 1.65453e-15 0 0 4 -8.83536 13.9313 45.584 
